HIERARCHY
ROOT Hips
{
	OFFSET -3.958830 18.904000 13.208200
	CHANNELS 6 Xposition Yposition Zposition Zrotation Yrotation Xrotation 
	JOINT LHipJoint
	{
		OFFSET 0.000000 0.000000 0.000000
		CHANNELS 3 Zrotation Yrotation Xrotation
		JOINT LeftUpLeg
		{
			OFFSET 1.800000 -1.400000 0.085000
			CHANNELS 3 Zrotation Yrotation Xrotation
			JOINT LeftLeg
			{
				OFFSET 2.215000 -6.000000 0.000000
				CHANNELS 3 Zrotation Yrotation Xrotation
				JOINT LeftFoot
				{
					OFFSET 2.500000 -6.900000 0.000000
					CHANNELS 3 Zrotation Yrotation Xrotation
					JOINT LeftToeBase
					{
						OFFSET 0.200000 -0.500000 1.950000
						CHANNELS 3 Zrotation Yrotation Xrotation
						End Site
						{
							OFFSET 0.000000 0.000000 0.000000
						}
					}
				}
			}
		}
	}
	JOINT RHipJoint
	{
		OFFSET 0.000000 0.000000 0.000000
		CHANNELS 3 Zrotation Yrotation Xrotation
		JOINT RightUpLeg
		{
			OFFSET -1.800000 -1.400000 0.085000
			CHANNELS 3 Zrotation Yrotation Xrotation
			JOINT RightLeg
			{
				OFFSET -2.215000 -6.000000 0.000000
				CHANNELS 3 Zrotation Yrotation Xrotation
				JOINT RightFoot
				{
					OFFSET -2.500000 -6.900000 0.000000
					CHANNELS 3 Zrotation Yrotation Xrotation
					JOINT RightToeBase
					{
						OFFSET -0.200000 -0.500000 1.950000
						CHANNELS 3 Zrotation Yrotation Xrotation
						End Site
						{
							OFFSET 0.000000 0.000000 0.000000
						}
					}
				}
			}
		}
	}
	JOINT LowerBack
	{
		OFFSET 0.000000 0.000000 0.000000
		CHANNELS 3 Zrotation Yrotation Xrotation
		JOINT Spine
		{
			OFFSET -0.087000 1.940000 -0.288900
			CHANNELS 3 Zrotation Yrotation Xrotation
			JOINT Spine1
			{
				OFFSET 0.000000 1.950000 0.060000
				CHANNELS 3 Zrotation Yrotation Xrotation
				JOINT Neck
				{
					OFFSET 0.000000 0.000000 0.000000
					CHANNELS 3 Zrotation Yrotation Xrotation
					JOINT Neck1
					{
						OFFSET 0.000000 1.600000 0.340000
						CHANNELS 3 Zrotation Yrotation Xrotation
						JOINT Head
						{
							OFFSET 0.000000 1.667000 -0.240000
							CHANNELS 3 Zrotation Yrotation Xrotation
							End Site
							{
								OFFSET 0.000000 0.000000 0.000000
							}
						}
					}
				}
				JOINT LeftShoulder
				{
					OFFSET 0.000000 0.000000 0.000000
					CHANNELS 3 Zrotation Yrotation Xrotation
					JOINT LeftArm
					{
						OFFSET 2.700000 1.550000 -0.730000
						CHANNELS 3 Zrotation Yrotation Xrotation
						JOINT LeftForeArm
						{
							OFFSET 5.450000 0.000000 0.000000
							CHANNELS 3 Zrotation Yrotation Xrotation
							JOINT LeftHand
							{
								OFFSET 3.450000 0.000000 0.000000
								CHANNELS 3 Zrotation Yrotation Xrotation
								JOINT LeftHandIndex1
								{
									OFFSET 0.750000 0.000000 0.000000
									CHANNELS 3 Zrotation Yrotation Xrotation
									End Site
									{
										OFFSET 0.000000 0.000000 0.000000
									}
								}
							}
						}
					}
				}
				JOINT RightShoulder
				{
					OFFSET 0.000000 0.000000 0.000000
					CHANNELS 3 Zrotation Yrotation Xrotation
					JOINT RightArm
					{
						OFFSET -2.700000 1.550000 -0.730000
						CHANNELS 3 Zrotation Yrotation Xrotation
						JOINT RightForeArm
						{
							OFFSET -5.450000 0.000000 0.000000
							CHANNELS 3 Zrotation Yrotation Xrotation
							JOINT RightHand
							{
								OFFSET -3.450000 0.000000 0.000000
								CHANNELS 3 Zrotation Yrotation Xrotation
								JOINT RightHandIndex1
								{
									OFFSET -0.750000 0.000000 0.000000
									CHANNELS 3 Zrotation Yrotation Xrotation
									End Site
									{
										OFFSET 0.000000 0.000000 0.000000
									}
								}
							}
						}
					}
				}
			}
		}
	}
}
MOTION
Frames: 6
Frame Time: 0.016667
0.080650 17.280450 -1.280090 6.791478 26.131546 5.202638 -14.364826 11.498410 2.538796 6.766096 -4.100116 -18.931252 -5.136547 7.258019 31.615321 -0.892220 5.812263 2.517967 0.771320 0.391890 0.588420 19.167800 -12.709818 2.972245 7.173145 -1.676595 -4.021228 -4.368698 -5.274834 28.574806 -0.801504 -5.117879 2.686455 0.443510 0.283290 0.046720 -6.624928 3.894828 -7.596183 20.947554 0.014271 19.243708 -13.799823 5.976164 23.983755 -0.079292 0.517917 -10.691763 -0.733565 -9.763578 37.702681 10.918490 -10.492450 -26.864810 -0.680002 -30.581319 7.433634 -26.967915 -35.792592 2.863645 132.014633 -65.531539 -128.367984 -3.549135 2.787785 0.836920 -0.076110 0.011570 0.272750 2.017133 31.027697 8.478238 62.423904 48.678584 1.607095 54.519940 52.280185 15.128161 2.002719 -1.716917 -0.444320 0.633250 -0.092060 -0.251320 
0.101170 17.232970 -1.275060 6.393490 27.338837 4.484733 -14.311583 11.364516 2.403763 7.478715 -3.689869 -17.792726 -6.014531 7.650759 31.100492 -0.917150 5.895669 2.469357 0.800810 0.418690 0.591950 19.249735 -12.785551 2.991119 7.116965 -1.812854 -2.705245 -3.719283 -5.455787 28.110937 -0.846842 -5.201628 2.644548 0.468970 0.275700 0.047470 -6.861866 4.286501 -7.578239 22.971048 0.022753 18.374040 -14.342477 5.971247 26.223618 0.488811 0.292721 -10.925109 -1.132193 -9.832265 38.586723 12.386360 -11.093570 -28.474440 -2.027978 -31.415590 7.397483 -28.113116 -36.999379 3.793300 133.262668 -66.514465 -130.633160 -3.531487 2.808324 0.866130 -0.103370 0.021210 0.267360 2.683615 31.848960 9.282115 59.415645 49.487207 1.424102 48.210935 56.853339 14.575604 1.855607 -1.659060 -0.444250 0.651520 -0.076750 -0.252090 
0.126650 17.110670 -1.247860 6.596966 31.070115 2.998665 -14.283171 11.201380 2.274593 8.094987 -3.581247 -16.200503 -6.683737 7.999702 31.388809 -0.899515 6.028773 2.392773 0.866060 0.501220 0.619210 19.313370 -12.864727 3.041887 7.512095 -2.474901 -0.313870 -3.465226 -5.705179 27.881551 -0.971543 -5.359431 2.581283 0.503940 0.218870 0.034480 -7.185568 4.702697 -7.664424 25.068047 -0.403179 18.240254 -15.239666 5.605242 28.015759 1.403758 0.824225 -11.316837 -0.639385 -10.705752 41.787255 14.822460 -11.855170 -31.461160 -5.735203 -34.302160 7.459508 -27.007605 -38.304955 4.589027 139.048061 -68.741400 -138.152781 -3.422959 2.860775 0.930140 -0.180010 0.086590 0.275650 5.022760 33.696195 9.852584 53.982661 49.351981 -0.972288 43.091950 57.732072 13.123357 1.704494 -1.588301 -0.422920 0.673490 -0.099260 -0.248070 
0.132890 16.991810 -1.226760 6.522485 34.607055 0.880455 -14.379291 11.359685 2.277363 8.699408 -3.633300 -15.116793 -6.276567 8.100208 32.751150 -0.874714 6.216274 2.236029 0.905240 0.521130 0.695020 19.179769 -12.804366 3.146283 8.838020 -2.568616 0.140426 -3.624515 -6.276667 31.988248 -1.138651 -5.754646 2.398734 0.473440 0.078830 0.088800 -7.145432 4.442029 -7.889105 25.396890 -1.188844 21.152168 -15.283633 5.140779 26.850238 2.405970 2.758064 -12.476979 2.152874 -12.315559 46.073015 15.243670 -11.576840 -34.176490 -11.208597 -39.337711 8.035199 -23.737272 -38.649681 4.433539 149.610674 -72.984678 -151.160683 -3.327512 2.920471 1.030740 -0.260150 0.193390 0.211770 8.187040 36.604009 9.983124 47.085639 45.442074 -5.388635 42.832368 53.691339 11.894150 1.680027 -1.481098 -0.362930 0.585190 -0.096690 -0.298720 
0.115480 16.932660 -1.218860 6.222773 34.904707 -1.007979 -14.468491 11.673593 2.229870 9.453152 -2.760983 -14.147317 -5.665147 8.481567 33.462338 -0.821675 6.369972 2.166125 0.939490 0.553700 0.726570 19.025391 -12.683956 3.238770 9.446671 -0.331370 -2.868306 -2.949789 -7.280708 41.879055 -1.387398 -6.701196 2.065867 0.464530 0.034780 0.103390 -6.892055 3.987675 -8.072904 25.184481 -1.968569 25.368478 -15.238657 5.127779 25.808740 2.695263 2.722864 -13.500202 1.547824 -12.322760 48.051480 16.728890 -11.339710 -36.695970 -13.535916 -41.958779 7.721865 -20.993864 -38.522723 3.380898 157.467225 -74.935622 -160.259817 -3.248593 2.899644 1.098220 -0.318420 0.263490 0.216900 9.495076 39.245261 10.489895 40.143015 44.473610 -7.481223 35.801604 50.493046 9.239170 1.569806 -1.361797 -0.340250 0.588380 -0.115810 -0.299780 
0.078880 16.855250 -1.218570 6.126559 36.516148 -1.518251 -14.636321 11.902557 2.148313 9.999442 -1.979874 -15.546248 -4.158783 8.860077 35.402458 -0.829713 6.689974 2.026179 0.912810 0.519520 0.675020 18.865966 -12.104270 3.512291 9.094156 4.850932 -10.155218 0.832892 -10.956772 57.039479 -1.808805 -8.852561 1.366928 0.479970 0.079150 0.088460 -6.457011 3.020014 -8.286426 24.059855 -2.939146 28.358359 -14.606666 4.036896 23.878338 2.464439 2.120291 -13.172069 -0.041145 -12.019485 46.776865 17.357470 -12.208090 -36.092410 -11.129062 -42.724829 6.045446 -19.095974 -40.845915 4.056989 154.873480 -77.118880 -157.119095 -3.272244 2.926932 1.088580 -0.302630 0.211610 0.208540 7.131831 40.059003 10.228704 36.577666 46.459141 -6.135673 23.285911 47.308733 5.403150 1.499024 -1.223911 -0.376100 0.614130 -0.066710 -0.294460 
